<?xml version="1.0" encoding="UTF-8"?>
<svg id="Layer_1" data-name="Layer 1" xmlns="http://www.w3.org/2000/svg" xmlns:xlink="http://www.w3.org/1999/xlink" viewBox="0 0 447.11 421.83">
  <defs>
    <style>
      .cls-1 {
        fill: url(#linear-gradient);
        stroke-width: 0px;
      }
    </style>
    <linearGradient id="linear-gradient" x1="0" y1="210.92" x2="447.11" y2="210.92" gradientUnits="userSpaceOnUse">
      <stop offset="0" stop-color="#ffb815"/>
      <stop offset="1" stop-color="#bdbf32"/>
    </linearGradient>
  </defs>
  <path class="cls-1" d="M412.13,124.27l-72.27-16.54c-12.06-2.76-22.45-10.36-28.72-21.02l-38.04-64.57c-16.65-28.27-57-29.77-75.71-2.82l-51.07,73.57c-6.16,8.87-15.3,15.23-25.76,17.92l-86.74,22.29c-31.78,8.17-44.41,46.51-23.69,71.96l47.3,58.12c7.81,9.59,11.32,21.98,9.71,34.24l-9.64,73.51c-4.47,34.1,29.43,60.4,61.35,47.6l77.13-30.94c10.54-4.23,22.29-4.31,32.89-.24l78.91,30.34c29.67,11.41,61.49-10.73,61.12-42.51l-.99-84.53c-.13-11.36,4.03-22.34,11.67-30.75l55.84-61.54c23.11-25.47,10.25-66.4-23.28-74.07ZM284.45,121.38c1.08-8.64,10.68-12.59,16.25-10.22,5.56,2.37,9.61,12.22,3.9,18.79-4.67,5.37-17.88,29.51-23.45,27.15-5.56-2.37,2.12-26.23,3.3-35.72ZM122.71,393.92c-17.56,0-31.8-12.31-31.8-27.5s14.24-27.5,31.8-27.5,31.8,12.31,31.8,27.5-14.24,27.5-31.8,27.5ZM129.18,264.62c6.04.33,13.2,8.21,10.07,16.34-2.56,6.64-6.76,33.84-12.8,33.51s-6.95-25.38-9.07-34.71c-1.93-8.49,5.75-15.47,11.79-15.14ZM165.38,152.24l-12.14,43.58s-.01.04-.02.07c-1.09,3.86-5.46,5.85-9.09,4.14-.02-.01-.04-.02-.06-.03l-38.95-18.55-.84-.4c-11.68-5.56-16.65-19.55-11.08-31.23l1.44-3.02c4.28-8.99,13.55-14,22.92-13.3,1.15.09,2.25-.41,2.94-1.34,5.62-7.53,15.48-11.23,25.07-8.56l4.34,1.21c11.85,3.3,18.78,15.58,15.48,27.43ZM231.94,294.4c-.49,5.9-1.74,11.87-4.82,16.92-4.43,7.28-12.68,13.1-12.72,21.62-8.5-9.36-16.99-18.71-25.49-28.07-2.99-3.29-6.05-6.69-7.63-10.85s-1.39-9.3,1.65-12.55c9.8-3.25,12.93,4.71,20.5,5.3,6.05.48,10.96-6.01,18.15-6.32,2.3-.1,4.71.23,6.59,1.54,3.72,2.59,4.13,7.88,3.76,12.4ZM234.91,122.73c-10.17,0-18.41-8.24-18.41-18.41s8.24-18.41,18.41-18.41,18.41,8.24,18.41,18.41-8.24,18.41-18.41,18.41ZM281.86,319.94c-1.28,7-.36,34.51-6.36,35.3-5.99.8-11.53-23.65-15.35-32.42-3.47-7.98,2.78-16.27,8.78-17.07s14.49,5.62,12.93,14.19ZM323.81,275.05l-45.81,4.79s-.05,0-.07,0c-4.06.41-7.58-2.98-7.32-7.06,0-.02,0-.05,0-.07l3-43.82.07-.95c.9-13.14,12.29-23.07,25.43-22.17l3.4.23c10.12.69,10.7,10.6,13.53,19.73.35,1.12,8.86-1.02,10-.72,9.23,2.51,16.42,10.46,17.48,20.54l.48,4.57c1.3,12.46-7.74,23.61-20.19,24.91ZM391.99,200.64c-10.76,0-19.48-8.72-19.48-19.48s8.72-19.48,19.48-19.48,19.48,8.72,19.48,19.48-8.72,19.48-19.48,19.48Z"/>
</svg>